# AST/ASF file generated using VICON BodyLanguage
# -----------------------------------------------
:version 1.10
:name VICON
:units
  mass 1.0
  length 0.45
  angle deg
:documentation
   .ast/.asf automatically generated from VICON data using
   VICON BodyBuilder and BodyLanguage model FoxedUp or BRILLIANT.MOD
:root
   order TX TY TZ RX RY RZ
   axis XYZ
   position 0 0 0  
   orientation 0 0 0 
:bonedata
  begin
     id 1 
     name lhipjoint
     direction 0.64773 -0.699417 0.302095 
     length 2.48597 
     axis 0 0 0  XYZ
  end
  begin
     id 2 
     name lfemur
     direction 0.34202 -0.939693 0  
     length 6.71947  
     axis 0 0 20  XYZ
    dof rx ry rz
    limits (-160.0 20.0)
           (-70.0 70.0)
           (-60.0 70.0)
  end
  begin
     id 3 
     name ltibia
     direction 0.34202 -0.939693 0   
     length 8.08777   
     axis 0 0 20   XYZ
    dof rx
    limits (-10.0 170.0)
  end
  begin
     id 4 
     name lfoot
     direction 0.0808503 -0.222134 0.971658   
     length 2.08264   
     axis -90 7.62852e-016 20   XYZ
    dof rx rz
    limits (-45.0 90.0)
           (-70.0 20.0)
  end
  begin
     id 5 
     name ltoes
     direction 1.53502e-011 -4.22007e-011 1   
     length 1.04662   
     axis -90 7.62852e-016 20   XYZ
    dof rx
    limits (-90.0 20.0)
  end
  begin
     id 6 
     name rhipjoint
     direction -0.610924 -0.726792 0.313919   
     length 2.39233  
     axis 0 0 0  XYZ 
  end
  begin
     id 7 
     name rfemur
     direction -0.34202 -0.939693 0   
     length 6.96955   
     axis 0 0 -20   XYZ
    dof rx ry rz
    limits (-160.0 20.0)
           (-70.0 70.0)
           (-70.0 60.0)
  end
  begin
     id 8 
     name rtibia
     direction -0.34202 -0.939693 0   
     length 8.19584   
     axis 0 0 -20   XYZ
    dof rx
    limits (-10.0 170.0)
 end
 begin
     id 9 
     name rfoot
     direction -0.077777 -0.213691 0.9738   
     length 2.07539  
     axis -90 -7.62852e-016 -20   XYZ
    dof rx rz
    limits (-45.0 90.0)
           (-20.0 70.0)
  end
  begin
     id 10 
     name rtoes
     direction -1.53558e-011 -4.22006e-011 1   
     length 1.04381   
     axis -90 -7.62852e-016 -20   XYZ
    dof rx
    limits (-90.0 20.0)
  end
  begin
     id 11 
     name lowerback
     direction -0.00971646 0.996074 0.0879841   
     length 1.67643   
     axis 0 0 0   XYZ
    dof rx ry rz
    limits (-20.0 45.0)
           (-30.0 30.0)
           (-30.0 30.0)
  end
  begin
     id 12 
     name upperback
     direction 0.0127391 0.991676 0.128127   
     length 1.63741   
     axis 0 0 0   XYZ
    dof rx ry rz
    limits (-20.0 45.0)
           (-30.0 30.0)
           (-30.0 30.0)
  end
  begin
     id 13 
     name thorax
     direction 0.0167583 0.996049 0.0872067   
     length 1.65931   
     axis 0 0 0   XYZ
    dof rx ry rz
    limits (-20.0 45.0)
           (-30.0 30.0)
           (-30.0 30.0)
  end
  begin
     id 14 
     name lowerneck
     direction -0.0317829 0.998312 0.0486079   
     length 1.79021   
     axis 0 0 0   XYZ
    dof rx ry rz
    limits (-20.0 45.0)
           (-30.0 30.0)
           (-30.0 30.0)
  end
  begin
     id 15 
     name upperneck
     direction 0.0896851 0.972452 -0.215159   
     length 1.78797   
     axis 0 0 0   XYZ
    dof rx ry rz
    limits (-20.0 45.0)
           (-30.0 30.0)
           (-30.0 30.0)
  end
  begin
     id 16
     name head
     direction 0.0310949 0.996503 -0.0775582  
     length 1.81549  
     axis 0 0 0   XYZ
    dof rx ry rz
    limits (-20.0 45.0)
           (-30.0 30.0)
           (-30.0 30.0)
  end
  begin
     id 17 
     name lclavicle
     direction 0.853638 0.502051 -0.138733  
     length 3.31627  
     axis 0 0 0   XYZ
    dof ry rz
    limits (-20.0 10.0)
           (0.0 20.0)
  end
  begin
     id 18 
     name lhumerus
     direction 1 -4.48962e-011 -1.41788e-018   
     length 5.54893   
     axis 180 -30 -90   XYZ
    dof rx ry rz
    limits (-60.0 90.0)
           (-90.0 90.0)
           (-90.0 90.0)
  end
  begin
     id 19
     name lradius
     direction 1 -4.48962e-011 -4.95754e-027   
     length 3.02898   
     axis 180 -30 -90   XYZ
    dof rx
    limits (-10.0 170.0)
  end
  begin
     id 20
     name lwrist
     direction 1 -4.48952e-011 -1.03764e-026   
     length 1.51449   
     axis 9.09556e-015 90 90   XYZ
    dof ry
    limits (-180.0 0.0)
 end
  begin
     id 21 
     name lhand
     direction 1 -4.4902e-011 -2.07528e-026   
     length 0.640951   
     axis 1.3242e-014 90 90   XYZ
    dof rx rz
    limits (-90.0 90.0)
           (-45.0 45.0)
  end
  begin
     id 22 
     name lfingers
     direction 1 -4.49014e-011 -4.15056e-026   
     length 0.516751   
     axis 2.64841e-014 90 90   XYZ
    dof rx
    limits (0.0 90.0)
  end
  begin
     id 23
     name lthumb
     direction 0.707107 -6.35008e-011 0.707107   
     length 0.741954   
     axis -90 45 2.85299e-015   XYZ
    dof rx rz
    limits (-45.0 45.0)
           (-45.0 45.0)
  end
  begin
     id 24 
     name rclavicle
     direction -0.888531 0.455324 -0.0565039   
     length 3.20126  
     axis 0 0 0   XYZ 
    dof ry rz
    limits (-10.0 20.0)
           (-20.0 0.0)
  end
  begin
     id 25 
     name rhumerus
     direction -1 -4.48946e-011 -8.98298e-028  
     length 5.3519   
     axis 180 30 90   XYZ
    dof rx ry rz
    limits (-90.0 60.0)
           (-90.0 90.0)
           (-90.0 90.0)
  end
  begin
     id 26 
     name rradius
     direction -1 -4.4899e-011 -3.18779e-027   
     length 3.02531   
     axis 180 30 90   XYZ
    dof rx
    limits (-10.0 170.0)
  end
  begin
     id 27 
     name rwrist
     direction -1 -4.4897e-011 -1.03764e-026   
     length 1.51266   
     axis 9.09556e-015 -90 -90   XYZ
    dof ry
    limits (-180.0 0.0)
  end
  begin
     id 28
     name rhand
     direction -1 -4.48941e-011 -2.07528e-026   
     length 0.78389   
     axis 1.3242e-014 -90 -90   XYZ
    dof rx rz
    limits (-90.0 90.0)
           (-45.0 45.0)
  end
  begin
     id 29
     name rfingers
     direction -1 -4.49012e-011 -4.15056e-026   
     length 0.631992   
     axis 2.64841e-014 -90 -90   XYZ
    dof rx
    limits (0.0 90.0)
  end
  begin
     id 30
     name rthumb
     direction -0.707107 -6.3496e-011 0.707107   
     length 0.907418   
     axis -90 -45 -2.85299e-015   XYZ
    dof rx rz
    limits (-45.0 45.0)
           (-45.0 45.0)
  end
:hierarchy
  begin
    root lhipjoint rhipjoint lowerback
    lhipjoint lfemur
    lfemur ltibia
    ltibia lfoot
    lfoot ltoes
    rhipjoint rfemur
    rfemur rtibia
    rtibia rfoot
    rfoot rtoes
    lowerback upperback
    upperback thorax
    thorax lowerneck lclavicle rclavicle
    lowerneck upperneck
    upperneck head
    lclavicle lhumerus
    lhumerus lradius
    lradius lwrist
    lwrist lhand lthumb
    lhand lfingers
    rclavicle rhumerus
    rhumerus rradius
    rradius rwrist
    rwrist rhand rthumb
    rhand rfingers
  end

#!OML:ASF E:\Style3\Style3.ASF
:FULLY-SPECIFIED
:DEGREES
2172
root 0.142798 17.8171 0.72119 -368.984 85.6958 -388.045
lowerback -8.03134 -0.487794 -1.83341
upperback -17.1307 0.829064 1.7672
thorax -14.4239 1.3708 2.80518
lowerneck -14.8479 -2.96486 -6.05458
upperneck -27.3636 1.43588 13.8928
head -5.9926 1.31469 5.61064
rclavicle -8.92046e-015 -3.57812e-015
rhumerus 112.683 4.65709 -810.28
rradius 9.78505
rwrist 12.4336
rhand -16.8365 17.6251
rfingers 7.12502
rthumb 9.39309 -12.1456
lclavicle -8.92046e-015 -3.57812e-015
lhumerus 470.163 -7.85087 1187.59
lradius 11.6125
lwrist -9.46894
lhand 10.7135 9.37882
lfingers 7.12502
lthumb 35.8028 35.7436
rfemur -19.1226 12.9411 17.351
rtibia 14.0817
rfoot -13.4401 -18.3198
rtoes -17.9248
lfemur -10.3261 -25.2918 -9.51681
ltibia -2.54444e-014
lfoot -15.7609 30.6971
ltoes -0.776657
2173
root 0.136408 17.8184 0.718838 -369.912 85.6895 -388.928
lowerback -8.00262 -0.461551 -1.73653
upperback -17.1142 0.860164 1.74697
thorax -14.4194 1.36961 2.72731
lowerneck -14.6823 -2.90231 -6.06255
upperneck -27.1859 1.46736 13.8901
head -5.96104 1.31971 5.6053
rclavicle 3.23025e-016 -1.16289e-014
rhumerus 112.369 4.43476 -810.265
rradius 9.9472
rwrist 12.013
rhand -16.6455 17.739
rfingers 7.12502
rthumb 9.57741 -12.0233
lclavicle 3.23025e-016 -1.16289e-014
lhumerus 470.11 -7.65303 1186.89
lradius 11.5747
lwrist -9.26853
lhand 11.1252 9.63627
lfingers 7.12502
lthumb 36.1928 35.9052
rfemur -19.0062 12.8623 17.4431
rtibia 13.9319
rfoot -13.2401 -18.3061
rtoes -18.2888
lfemur -10.294 -25.339 -9.45604
ltibia -6.36111e-015
lfoot -16.3383 30.6603
ltoes 0.529296
2174
root 0.130936 17.82 0.71699 -370.853 85.6855 -389.866
lowerback -8.0062 -0.443535 -1.6549
upperback -17.0707 0.88143 1.76808
thorax -14.3612 1.3675 2.7052
lowerneck -14.7636 -2.90492 -6.22844
upperneck -26.8949 1.45015 14.0279
head -5.84623 1.32193 5.67392
rclavicle 1.06598e-014 8.44835e-015
rhumerus 112.222 4.32272 -810.182
rradius 9.99506
rwrist 11.6277
rhand -16.3996 17.9011
rfingers 7.12502
rthumb 9.81468 -11.8502
lclavicle 1.06598e-014 8.44835e-015
lhumerus 470.097 -7.61974 1186.66
lradius 11.446
lwrist -9.43978
lhand 11.3467 9.57078
lfingers 7.12502
lthumb 36.4025 35.7874
rfemur -18.9426 12.8072 17.5218
rtibia 13.7835
rfoot -13.1944 -18.2544
rtoes -18.1447
lfemur -10.3165 -25.3834 -9.37342
ltibia 2.8625e-014
lfoot -16.7223 30.6675
ltoes 1.35013
2175
root 0.125417 17.8204 0.717883 -370.919 85.7016 -389.938
lowerback -8.02348 -0.454941 -1.68509
upperback -17.0241 0.86097 1.78699
thorax -14.2902 1.35914 2.74485
lowerneck -14.733 -2.90521 -6.2813
upperneck -26.7506 1.42906 14.0809
head -5.79897 1.31071 5.69712
rclavicle -2.33572e-015 -1.02374e-014
rhumerus 112.051 4.20327 -810.149
rradius 10.1503
rwrist 11.4124
rhand -16.117 18.088
rfingers 7.12502
rthumb 10.0873 -11.6503
lclavicle -2.33572e-015 -1.02374e-014
lhumerus 470.045 -7.51139 1186.31
lradius 11.4717
lwrist -9.30946
lhand 11.5159 9.43501
lfingers 7.12502
lthumb 36.5627 35.6113
rfemur -18.8983 12.7282 17.5392
rtibia 13.6608
rfoot -13.1497 -18.1584
rtoes -18.3161
lfemur -10.3616 -25.4321 -9.34412
ltibia -3.49861e-014
lfoot -16.1871 30.807
ltoes 0.369051
2176
root 0.121644 17.8203 0.720373 -371.568 85.7263 -390.622
lowerback -8.04494 -0.46937 -1.66964
upperback -17.0392 0.846648 1.80322
thorax -14.2956 1.35332 2.75486
lowerneck -14.5354 -2.89502 -6.29653
upperneck -26.6797 1.40796 14.083
head -5.80217 1.28947 5.69776
rclavicle 1.36664e-015 -2.68359e-015
rhumerus 111.804 3.32738 -808.495
rradius 10.5387
rwrist 9.36455
rhand -15.9986 17.8874
rfingers 7.12502
rthumb 10.2015 -11.8453
lclavicle 1.36664e-015 -2.68359e-015
lhumerus 469.907 -7.11478 1185.38
lradius 11.6223
lwrist -8.35473
lhand 11.6766 9.59023
lfingers 7.12502
lthumb 36.7148 35.7279
rfemur -18.8915 12.7873 17.5686
rtibia 13.5612
rfoot -13.1049 -18.2181
rtoes -18.224
lfemur -10.4362 -25.4899 -9.24736
ltibia 2.70347e-014
lfoot -15.485 30.9541
ltoes -1.27231
2177
root 0.11795 17.8209 0.721197 -372.029 85.7417 -391.071
lowerback -8.01914 -0.469043 -1.63539
upperback -17.0385 0.847698 1.81219
thorax -14.3102 1.35017 2.74555
lowerneck -14.3596 -2.89926 -6.38694
upperneck -26.6183 1.39259 14.1577
head -5.80417 1.27621 5.73751
rclavicle -9.46712e-015 1.98785e-015
rhumerus 111.575 2.72977 -807.382
rradius 10.831
rwrist 7.94558
rhand -15.9755 18.0184
rfingers 7.12502
rthumb 10.2238 -11.7131
lclavicle -9.46712e-015 1.98785e-015
lhumerus 469.735 -6.74901 1184.51
lradius 11.753
lwrist -7.33373
lhand 11.4083 9.57412
lfingers 7.12502
lthumb 36.4608 35.7761
rfemur -18.8399 12.8308 17.593
rtibia 13.4803
rfoot -13.0214 -18.3137
rtoes -18.0598
lfemur -10.4493 -25.5452 -9.19478
ltibia 1.74931e-014
lfoot -16.1244 30.8633
ltoes 0.166431
2178
root 0.114674 17.8211 0.720932 -372.569 85.7701 -391.618
lowerback -8.02601 -0.477879 -1.6089
upperback -17.0188 0.837375 1.84812
thorax -14.2803 1.34356 2.77163
lowerneck -14.305 -2.93387 -6.53243
upperneck -26.4686 1.34661 14.3034
head -5.75361 1.25571 5.80902
rclavicle 7.05686e-015 -1.68967e-015
rhumerus 111.369 2.09756 -806.156
rradius 11.2049
rwrist 6.66064
rhand -15.7211 18.1631
rfingers 7.12502
rthumb 10.4692 -11.5562
lclavicle 7.05686e-015 -1.68967e-015
lhumerus 469.758 -6.16408 1183.24
lradius 11.7046
lwrist -5.6788
lhand 11.094 9.5836
lfingers 7.12502
lthumb 36.1632 35.8598
rfemur -18.8142 12.8007 17.6316
rtibia 13.4104
rfoot -12.9432 -18.3785
rtoes -18.2754
lfemur -10.4892 -25.612 -9.13075
ltibia 3.65764e-014
lfoot -16.7456 30.7766
ltoes 1.63157
2179
root 0.110819 17.8225 0.718736 -372.236 85.8031 -391.326
lowerback -8.07864 -0.48395 -1.61708
upperback -16.989 0.825252 1.84048
thorax -14.2084 1.33534 2.76898
lowerneck -14.3117 -2.96893 -6.56015
upperneck -26.2957 1.27218 14.3536
head -5.68561 1.21838 5.82538
rclavicle -1.6201e-014 -3.18055e-015
rhumerus 111.237 1.68966 -805.39
rradius 11.4558
rwrist 5.93715
rhand -15.5364 18.1041
rfingers 7.12502
rthumb 10.6473 -11.6062
lclavicle -1.6201e-014 -3.18055e-015
lhumerus 469.792 -5.70566 1182.18
lradius 11.6723
lwrist -4.49666
lhand 10.8679 9.59423
lfingers 7.12502
lthumb 35.949 35.9233
rfemur -18.8529 12.6893 17.5985
rtibia 13.3741
rfoot -12.9562 -18.3153
rtoes -18.2171
lfemur -10.5722 -25.6679 -9.12826
ltibia -1.59028e-014
lfoot -16.1489 30.9339
ltoes 0.436806
2180
root 0.106818 17.8245 0.718485 -371.559 85.8652 -390.678
lowerback -8.08202 -0.486595 -1.67134
upperback -16.9582 0.812499 1.79964
thorax -14.1654 1.32953 2.7546
lowerneck -14.3364 -2.97982 -6.49799
upperneck -26.1217 1.20297 14.2872
head -5.61839 1.18187 5.78526
rclavicle -2.98177e-015 2.17669e-014
rhumerus 111.177 1.47091 -805.145
rradius 11.5526
rwrist 5.70268
rhand -15.5613 18.2142
rfingers 7.12502
rthumb 10.6234 -11.4972
lclavicle -2.98177e-015 2.17669e-014
lhumerus 469.79 -5.26045 1181.08
lradius 11.693
lwrist -3.6188
lhand 10.9092 9.61701
lfingers 7.12502
lthumb 35.9882 35.9364
rfemur -18.9175 12.6988 17.5101
rtibia 13.3959
rfoot -12.8839 -18.4273
rtoes -18.165
lfemur -10.6627 -25.7467 -9.1491
ltibia 4.77083e-015
lfoot -15.3699 31.1043
ltoes -1.13685
2181
root 0.102733 17.8257 0.720578 -371.223 85.9377 -390.371
lowerback -8.09461 -0.488698 -1.72626
upperback -16.913 0.800974 1.77627
thorax -14.0989 1.32503 2.76026
lowerneck -14.3775 -3.00165 -6.49489
upperneck -25.9474 1.13021 14.2442
head -5.54755 1.14885 5.76395
rclavicle 1.39149e-015 -1.17283e-014
rhumerus 111.143 1.08056 -804.62
rradius 11.681
rwrist 5.2048
rhand -15.7389 18.2156
rfingers 7.12502
rthumb 10.452 -11.5046
lclavicle 1.39149e-015 -1.17283e-014
lhumerus 469.839 -4.63148 1179.63
lradius 11.7681
lwrist -2.38597
lhand 11.0841 10.0509
lfingers 7.12502
lthumb 36.1539 36.3294
rfemur -18.9506 12.861 17.4325
rtibia 13.3843
rfoot -12.7816 -18.7477
rtoes -17.9952
lfemur -10.7694 -25.84 -9.13812
ltibia -1.59028e-015
lfoot -15.0915 31.227
ltoes -1.54697
2182
root 0.0977301 17.8276 0.723663 -370.669 86.0254 -389.825
lowerback -8.09203 -0.508844 -1.83956
upperback -16.8629 0.764438 1.76353
thorax -14.0354 1.31634 2.81126
lowerneck -14.303 -2.99966 -6.49998
upperneck -25.8688 1.10989 14.2479
head -5.53041 1.13472 5.76338
rclavicle -1.87852e-014 -3.47873e-015
rhumerus 111.068 0.544877 -803.865
rradius 11.8953
rwrist 4.36638
rhand -15.6102 17.9845
rfingers 7.12502
rthumb 10.5762 -11.7294
lclavicle -1.87852e-014 -3.47873e-015
lhumerus 469.922 -3.67109 1177.49
lradius 11.8201
lwrist -0.410481
lhand 10.8622 10.0679
lfingers 7.12502
lthumb 35.9436 36.3982
rfemur -18.9359 12.938 17.36
rtibia 13.3475
rfoot -12.8224 -18.9166
rtoes -17.797
lfemur -10.8684 -25.9484 -9.14969
ltibia -1.27222e-014
lfoot -14.4901 31.4199
ltoes -3.10268
